<svg xmlns="http://www.w3.org/2000/svg" width="1000" height="760" viewBox="0 0 1000 760">
  <rect width="100%" height="100%" fill="white"/>
  <text x="500" y="45" text-anchor="middle" font-family="Arial, sans-serif" font-size="28">Fine-Tuned Model — Confusion Matrix (Test Set)</text>
  <text x="500" y="720" text-anchor="middle" font-family="Arial, sans-serif" font-size="20">Predicted label</text>
  <text x="35" y="380" transform="rotate(-90 35 380)" text-anchor="middle" font-family="Arial, sans-serif" font-size="20">True label</text>

  <g font-family="Arial, sans-serif" font-size="16" text-anchor="end">
    <text x="270" y="150">workflow_resource</text>
    <text x="270" y="270">technical_help</text>
    <text x="270" y="390">model_news_discussion</text>
    <text x="270" y="510">showcase_reaction</text>
  </g>

  <g font-family="Arial, sans-serif" font-size="15" text-anchor="middle">
    <text x="340" y="655">workflow_resource</text>
    <text x="460" y="655">technical_help</text>
    <text x="580" y="655">model_news_discussion</text>
    <text x="700" y="655">showcase_reaction</text>
  </g>

  <g stroke="white" stroke-width="2" font-family="Arial, sans-serif" font-size="24" text-anchor="middle" dominant-baseline="middle">
    <rect x="300" y="100" width="120" height="120" fill="#8ec1da"/><text x="360" y="160" fill="#08306b">2</text>
    <rect x="420" y="100" width="120" height="120" fill="#08306b"/><text x="480" y="160" fill="white">5</text>
    <rect x="540" y="100" width="120" height="120" fill="#f7fbff"/><text x="600" y="160" fill="#08306b">0</text>
    <rect x="660" y="100" width="120" height="120" fill="#c8ddf0"/><text x="720" y="160" fill="#08306b">1</text>

    <rect x="300" y="220" width="120" height="120" fill="#8ec1da"/><text x="360" y="280" fill="#08306b">2</text>
    <rect x="420" y="220" width="120" height="120" fill="#08306b"/><text x="480" y="280" fill="white">5</text>
    <rect x="540" y="220" width="120" height="120" fill="#f7fbff"/><text x="600" y="280" fill="#08306b">0</text>
    <rect x="660" y="220" width="120" height="120" fill="#f7fbff"/><text x="720" y="280" fill="#08306b">0</text>

    <rect x="300" y="340" width="120" height="120" fill="#4a98c9"/><text x="360" y="400" fill="white">3</text>
    <rect x="420" y="340" width="120" height="120" fill="#08306b"/><text x="480" y="400" fill="white">5</text>
    <rect x="540" y="340" width="120" height="120" fill="#f7fbff"/><text x="600" y="400" fill="#08306b">0</text>
    <rect x="660" y="340" width="120" height="120" fill="#f7fbff"/><text x="720" y="400" fill="#08306b">0</text>

    <rect x="300" y="460" width="120" height="120" fill="#8ec1da"/><text x="360" y="520" fill="#08306b">2</text>
    <rect x="420" y="460" width="120" height="120" fill="#8ec1da"/><text x="480" y="520" fill="#08306b">2</text>
    <rect x="540" y="460" width="120" height="120" fill="#f7fbff"/><text x="600" y="520" fill="#08306b">0</text>
    <rect x="660" y="460" width="120" height="120" fill="#4a98c9"/><text x="720" y="520" fill="white">3</text>
  </g>

  <rect x="300" y="100" width="480" height="480" fill="none" stroke="black" stroke-width="2"/>
</svg>
